<svg xmlns="http://www.w3.org/2000/svg" fill-rule="evenodd" stroke-linejoin="round" stroke-miterlimit="2" clip-rule="evenodd" viewBox="0 0 1069 1069" id="planet"><rect width="1066.67" height="1066.67" x="1.66" y=".254" fill="none"></rect><path d="M207.291,599.894c-30.976,32.914 -51.989,63.419 -61.646,88.552c-10.621,27.64 -8.925,51.144 1.441,69.099c13.704,23.736 45.805,39.474 94.701,37.543c20.532,-0.812 44.737,-4.54 71.767,-11.001c104.712,92.525 260.95,112.682 388.579,38.995c127.63,-73.687 188.292,-219.071 160.519,-356.017c19.111,-20.178 34.442,-39.276 45.41,-56.652c26.122,-41.379 28.542,-77.049 14.838,-100.784c-10.366,-17.955 -29.873,-31.176 -59.121,-35.798c-26.594,-4.203 -63.519,-1.258 -107.511,9.111c-104.703,-92.4 -260.848,-112.5 -388.413,-38.851l-0.004,0.002c-127.564,73.65 -188.229,218.926 -160.56,355.801Zm599.17,-79.733c-53.281,45.8 -121.457,94.118 -199.025,138.901c-77.567,44.784 -153.499,79.667 -219.803,102.91c82.902,53.357 192.058,59.634 283.25,6.984c91.193,-52.65 140.335,-150.321 135.578,-248.795Zm-576.936,149.245c-8.804,11.139 -15.883,21.696 -21.013,31.546c-3.296,6.327 -5.716,12.2 -6.921,17.645c-0.659,2.981 -1.591,5.598 -0.378,7.698c2.296,3.978 7.908,4.195 14.347,5.25c13.2,2.162 29.768,1.479 49.051,-1.359c-6.805,-9.376 -13.191,-19.201 -19.113,-29.459c-5.931,-10.273 -11.255,-20.732 -15.973,-31.321Zm563.63,-220.912c-5.732,-17.348 -13.306,-34.364 -22.793,-50.797c-75,-129.903 -241.354,-174.478 -371.257,-99.48l-0.004,0.002c-129.902,75.001 -174.476,241.355 -99.476,371.258c9.487,16.433 20.436,31.5 32.595,45.138c69.96,-20.857 155.695,-58.716 243.966,-109.679c88.272,-50.964 163.926,-106.284 216.969,-156.442Zm47.289,-50.765c12.099,-15.281 20.975,-29.288 25.702,-41.8c2.306,-6.104 4.924,-11.073 2.628,-15.05c-1.212,-2.1 -3.945,-2.602 -6.856,-3.522c-5.318,-1.679 -11.615,-2.519 -18.742,-2.829c-11.095,-0.482 -23.778,0.37 -37.826,2.425c6.811,9.381 13.207,19.22 19.138,29.494c5.923,10.258 11.239,20.7 15.956,31.282Z"></path><path fill-opacity=".5" d="M876.92,825.254c18.254,-0 33.073,14.819 33.073,33.073c0,18.254 -14.819,33.073 -33.073,33.073c-18.254,0 -33.073,-14.819 -33.073,-33.073c-0,-18.254 14.819,-33.073 33.073,-33.073Zm-448.855,-346.511c-53.266,-0 -96.511,43.245 -96.511,96.511c0,53.265 43.245,96.51 96.511,96.51c53.266,0 96.511,-43.245 96.511,-96.51c-0,-53.266 -43.245,-96.511 -96.511,-96.511Zm-0,62.5c18.771,-0 34.011,15.24 34.011,34.011c-0,18.771 -15.24,34.01 -34.011,34.01c-18.771,0 -34.011,-15.239 -34.011,-34.01c0,-18.771 15.24,-34.011 34.011,-34.011Zm-268.072,-97.397c18.254,0 33.074,14.82 33.074,33.074c-0,18.253 -14.82,33.073 -33.074,33.073c-18.253,-0 -33.073,-14.82 -33.073,-33.073c-0,-18.254 14.82,-33.074 33.073,-33.074Zm200.658,-195.476c-9.127,5.577 -14.768,15.435 -14.951,26.13c-0.611,35.692 8.134,71.998 27.267,105.137c56.22,97.376 180.922,130.79 278.298,74.57c59.168,-34.161 94.732,-93.598 100.9,-156.822c1.042,-10.675 -3.464,-21.138 -11.935,-27.717c-104.177,-80.903 -251.177,-95.551 -372.377,-25.576c-2.427,1.401 -4.83,2.828 -7.202,4.278Zm48.317,44.427c90.928,-47.673 197.718,-38.702 278.259,15.611c-8.302,37.284 -31.573,71.096 -67.212,91.672c-67.503,38.973 -153.948,15.81 -192.921,-51.693c-10.181,-17.633 -16.125,-36.557 -18.126,-55.59Zm279.022,-175.877c18.253,0 33.073,14.82 33.073,33.074c-0,18.253 -14.82,33.073 -33.073,33.073c-18.254,-0 -33.074,-14.82 -33.074,-33.073c0,-18.254 14.82,-33.074 33.074,-33.074Z"></path></svg>